<svg width="36" height="30" viewBox="0 0 36 30" fill="none" xmlns="http://www.w3.org/2000/svg">
<line y1="-0.5" x2="27.3141" y2="-0.5" transform="matrix(0.869116 0.494609 -0.990752 0.135689 0 1)" stroke="#00B14F" stroke-dasharray="2 2"/>
<line y1="-0.5" x2="26.8245" y2="-0.5" transform="matrix(-0.884981 0.465627 -0.989205 -0.146536 23.7391 14.5098)" stroke="#00B14F" stroke-dasharray="2 2"/>
<line y1="-0.5" x2="27.3141" y2="-0.5" transform="matrix(0.869116 0.494609 -0.990752 0.135689 2.73913 1)" stroke="#00B14F" stroke-dasharray="2 2"/>
<line y1="-0.5" x2="26.8245" y2="-0.5" transform="matrix(-0.884981 0.465627 -0.989205 -0.146536 26.4783 14.5098)" stroke="#00B14F" stroke-dasharray="2 2"/>
<line y1="-0.5" x2="27.3141" y2="-0.5" transform="matrix(0.869116 0.494609 -0.990752 0.135689 5.47826 1)" stroke="#00B14F" stroke-dasharray="2 2"/>
<line y1="-0.5" x2="26.8245" y2="-0.5" transform="matrix(-0.884981 0.465627 -0.989205 -0.146536 29.2174 14.5098)" stroke="#00B14F" stroke-dasharray="2 2"/>
<line y1="-0.5" x2="27.3141" y2="-0.5" transform="matrix(0.869116 0.494609 -0.990752 0.135689 8.21738 1)" stroke="#00B14F" stroke-dasharray="2 2"/>
<line y1="-0.5" x2="26.8245" y2="-0.5" transform="matrix(-0.884981 0.465627 -0.989205 -0.146536 31.9565 14.5098)" stroke="#00B14F" stroke-dasharray="2 2"/>
<line y1="-0.5" x2="27.3141" y2="-0.5" transform="matrix(0.869116 0.494609 -0.990752 0.135689 10.9565 1)" stroke="#00B14F" stroke-dasharray="2 2"/>
<line y1="-0.5" x2="26.8245" y2="-0.5" transform="matrix(-0.884981 0.465627 -0.989205 -0.146536 34.6956 14.5098)" stroke="#00B14F" stroke-dasharray="2 2"/>
</svg>
